<svg version="1.2" xmlns="http://www.w3.org/2000/svg" viewBox="0 0 64 64" width="64" height="64">
	<title>New Project</title>
	<style>
		.s0 { fill: none;stroke: #ffffff;stroke-linecap: round;stroke-linejoin: round;stroke-width: 4;stroke-dasharray: 4,8 } 
		.s1 { fill: #ffffff } 
	</style>
	<path id="trail" class="s0" d="m32.6 54.5c0 0 21.6 3.1 25.3-8.9 4.9-16.5-29.3-13.5 0-37.2"/>
	<path id="Color Fill 1" class="s1" d="m18.6 36.4l-0.7-2.6-3.8-5.7 6.2 5.1 9.9-9.5 2.4 2.9c0 0 6.5 2.1 7.1 5.3 0.5 3.2 1.2 8.1-6.5 11.4-2.6 1.1-7.2 8.4-7.9 9.9-0.7 1.5-2.1 3.5-2.1 3.5l-16.2-0.1c0 0-2.1 0.3-2.7-2.6-0.6-2.9-0.7-4.4 2.7-5.3 3.3-0.9 5.4 0.3 7-0.9 1.7-1.2 4-7.2 4.6-11.4zm9.6 17.6h21.2"/>
	<path id="Layer 2" class="s1" d="m7.8 21.6l2 10.9 4.6 0.4-2.9-9.3 8.1 6.8 14.2-12.3-10.4-7.1z"/>
</svg>